<mxfile host="app.diagrams.net" modified="2023-08-17T05:37:39.449Z" agent="Mozilla/5.0 (Windows NT 10.0; Win64; x64) AppleWebKit/537.36 (KHTML, like Gecko) Chrome/115.0.0.0 Safari/537.36" etag="yhKzyZrIWk45jHEoZT2x" version="21.6.8" type="github">
  <diagram name="第 1 页" id="yGX5SSvUVxovBalWXRLU">
    <mxGraphModel dx="2022" dy="1794" grid="1" gridSize="10" guides="1" tooltips="1" connect="1" arrows="1" fold="1" page="1" pageScale="1" pageWidth="827" pageHeight="1169" math="0" shadow="0">
      <root>
        <mxCell id="0" />
        <mxCell id="1" parent="0" />
        <mxCell id="3bySADuBjw2l3h-CoC6T-25" value="" style="rounded=0;whiteSpace=wrap;html=1;" vertex="1" parent="1">
          <mxGeometry x="-210" y="-50" width="1320" height="1700" as="geometry" />
        </mxCell>
        <mxCell id="3bySADuBjw2l3h-CoC6T-1" value="" style="shape=image;verticalLabelPosition=bottom;labelBackgroundColor=default;verticalAlign=top;aspect=fixed;imageAspect=0;image=data:image/png,iVBORw0KGgoAAAANSUhEUgAAARYAAAKICAYAAAC1ydXhAAAgAElEQVR4Ae2d768eN3bf81f4z0n9YmsUqFEo0Yu0Qd8YTdAWaYJg60DdbaJFi6stihhx0BhQ7dSbFXTR1DVUNan3KqivVlCbXTiRDFiKqkhIsruGnfW9kGUFWHe38bXM4pA85OEZzo/nPpx5ZobfCwjD4W9+SX58yHlM/pTBHxSAAlCgsAI/VTg/ZAcFoAAUMAALBgEUgALFFQBYikuKDKEAFABYMAagABQorgDAUlxSZAgFoEBRsHz+9Kn57ORz87efneAfNMAYWNgYoLlLc7jEXxGwfPHFFwDKwgYR4I//+LWNAQIMzelt/oqABVYKBmnbIIX/MscGzelt/rYGC5lOGDzLHDzoN/Rb1xjYZlm0NVhgrWBwdg1OhC13fGxjtWwNFgyc5Q4c9B36rm8MnHY5BLBg0xVLWYyB1jEAsGBwtA6Ovv8qIRyWS9sYAFgAFoAFY6D4GABYMKiKD6q2/4rBvx4LB2ABWAAWjIHiYwBgwaAqPqhgmdRjmbT1NcACsAAsGAPFx8CiwXLj5nfN713+r+bcr18wL/32q+bq//gj838e/EVxkdqoDH/8lxljID8GFguWf/mVf2v+zt/9WXP253/R/LNfPmf+8Qu/bL7093/O/L1/8PPmv/3htYFweWK+/8c/MB/L/2J98gNz849/YP76owfm3kc/HpjPifnRhvExIPMDErqsQ5dFgoWAQv/evv6/k4n/V99/3/zKl389G5YfsBIs5P4TC5WPP/ux+fgHBJaPvB/7U6dzPPIb8k+BS0IM7qT/8n20jolWW9sWB5bffuU/WXB0ddQrF3/Pxvno+FHrwP34BykUHEQiBFILRAIoP9DT+Pk4XXVGGDRb0xhYFFiu3/hjC4w/ffdOKzC4c37hn/+a+Z2Lv9cTTwJDWiK8FHpi/vo+A8hDxy6V2G/Y8/ufYNJwv+BZx1hYFFj+4+9eNj/zD3+hBxau437rP7xml0XdA1mDZYDFQmC5/5H5ES9j1Lu1hEL4jy2YAJY6JlP3WKtLg0WB5df+9Z75p//i3CCwkHVDG7ndne3B8skP1H5KzhIRFosFh7RwRPwfPBFlAizd+tc12WrSYlFgoU/K9PVnSAf9lzf/wPzsP/rFzrhhnyWBgRvsm+yZwEoBIIaMyZriLAos9DsV+qRMX3/6Ook+R//Sr36lNR7B4PufiKXQpx+Zex1feXKfngk+9GWoudRhayYurfrqi3DAaU1jYFFgoR+/0fKGPil3dQL9joU+R9MP6LriuU/HcvITEB6Yv/5UDHILHOX3mVviDPrcHPZbRJ68P4NnT/9As+7xO199FgUWEpmhQZ+Uc6K/+949C5Xf/K2L2fA0jbBYwiR31gZZIc4i0VCJnUlWT7BkxCauXRpllldp2TEf+EOLtY2BxYGFOoB+GEcWCX1Spq8/tFH7u9/8ffPlf/VvrP+/+81X7PMPv/U/e+CSA4u0RvJQ4SVQgApBKYDlx+ZHnzKU/iT9ghTghYm0tomE9qRjepFgoU6kH7/R71RoWUTLo5/5uX9ifulXv2oO/ujbFiYEFYLP5d+/koULw8F9OnZWilvaSJhIyDhIfEQ/rAvLmzQ8AY2HCKyXdMBhAtahx2LBMmSAElQILkPiIk4dAx79PE0/rxosGETTDCLoDJ31GABYsO8Biw5joPgYAFgwqIoPKv1fL7zXZ9EALAALwIIxUHwMACwYVMUHFSyU+iwU3ecAC8ACsGAMFB8DAAsGVfFBpf/rhff6LBiABWABWDAGio+BnYHls5PPizcG/2Ws77+M6PP59TnN7dP+/dRpE3K6z58+BVjwX0qMgRWOAZrbp/3bGixUMKyW+f3XBhYA+mSbMbCNtUJMKAKWL774AnBZ4X+xthmYSLtcsBFUaE5v81cELFwBMp1gvSx3QAEGdfcdzd1tlj/MAXoWBYvMGG4oAAXqVQBgqbfv0XIoMJoCAMto0iJjKFCvAgBLvX2PlkOB0RQAWEaTFhlDgXoVAFjq7Xu0HAqMpgDAMpq0yBgK1KsAwFJv36PlUGA0BQCW0aRFxlCgXgUAlnr7Hi2HAqMpALCMJi0yhgL1KgCw1Nv3aDkUGE0BgGU0aZExFKhXAYCl3r5Hy6HAaAoALKNJi4yhQL0KACz19j1aDgVGUwBgGU1aZAwF6lUAYKm379FyKDCaAgDLaNIiYyhQrwIAS719j5ZDgdEUAFhGkxYZQ4F6FRgZLB+ab//G181X+v698Z75UdIHA9Pd+DBJhRcoAAXmocAEYHnDvPc3HY39m/fMfgMsHfE56IND8xWAhdXAEwoEBf7qe++bl3/nd83R8aPgR27yo7Ap/mYKlk/Ne28MsHQAlinGCMpYoAIHf3Q9wIWhQn5T/U0AlgGAgMUyVX+jnIoUuPLfDyxcyFIh95R/E4Bls6XQj+6+0b8no/dsTgOmKVVGWVBgRwr85zeuGvo39d/swNImgAUOlj5t8sAfCsxKgQnAcoqlEG3MKivEWTKHRm49kd/+3U9nJSgqAwWgwOh3N9Nn482WQtwpDiQxrXv/egDJ+ze+buHz/t8ALKwZnlBAK4ClkFaE3ulT9I33zHtvvGG+feMN8xXr9hYQlkU5xeAHBYIC2LxVyx5Wxlolv/F18+0PjLEWi4WJ+/Ec+eEPCkCBvAL43ExfeBRYGChy/ySChYTk37mkey55ieELBepSAD+Qo/5Wv7wlqESgpD/tb1gplDYDprqGEVoLBeanwMhfhebXYNQICkCB8RUAWMbXGCVAgeoUAFiq63I0GAqMrwDAMr7GKAEKVKcAwFJdl6PBUGB8BQCW8TVGCVCgOgUAluq6HA2GAuMrALCMrzFKgALVKQCwVNflaDAUGF8BgGV8jVECFKhOAYClui5Hg6HA+AoALONrjBKgQHUKACzVdTkaDAXGVwBgGV9jlAAFqlMAYKmuy9FgKDC+AgDL+BqjBChQnQIAS3VdjgZDgfEVWBBYHpjLz10wh/E6WqEOhV0y94RPv7MrvyfmcC9f1r39s+bZ/QfZ7B/fuGCefe7soH/nbzzJ5gFPKLAGBeYPlvuXBk1UOaEv3zcmN8nP33gggCHBIt3Ure1gMY8OzfkWiNkyW6ATBwvlfdYALFERuNanwPzBEjTXkz8EGGMoLG+xkIVBoHF/EhgyP+mmmDpetxXCkABYWGc8a1dgYWDpmuAZsJB1sXdoHode1sDg5U4ES8PS8elTQFGGMQ1nD7CwEnjWrsAkYPnuO7fNx48/CVqTm/w2+2tO5JiewppgsfshYc+Dwt0yRC6bopshQ7lKAHEp0s/lEy0hFwdgYa3wrF2BScDywYc/tCAhoDBUyG+zP4LHBhaL35txy5QceLpAFSHSsGBydfBWDcCyWY8i9noVmAQsJB/DhSyVzaFCOXSBQIODwHDJHN644DdJfXiy8Zrmly51nEVC1kxilVhYNS0jHh4ACyuBZ+0KTAYWEpqAsilU0uVMl8UiwvyXGZroicUyACyxPLc0iu8if221iPLaPkXHgeagxRu+0R8uKLAeBSYFy7ayESjYgojQcJ+WcxM1xjmNxdKz50LWS7Ix7D9x43Pztt2M9CtQYBlgsZZGh8UQLIh0mUJgiZuzl8y9ARaL69O4x0LvST4EjpYlkY0HsKxgWqAJ2yowe7DYpYiyDHiyN60UskziL2PzFks7oNgayn8VMsb9OC6m1+UnAAqwi/Ej5PADuW0HLtLPW4HZg8VN8vzklBM1ulOrZaj8BDACS4RD5vO0AhzHZcDYd1gsQyVHvBUrsACwrFh9NA0KrFQBgGWlHYtmQYFdKgCw7FJ9lA0FVqoAwLLSjkWzoMAuFQBYdqk+yoYCK1UAYFlpx6JZUGCXCgAsu1QfZUOBlSoAsKy0Y9EsKLBLBQCWXaqPsqHAShUAWFbasWgWFNilAgDLLtVH2VBgpQoALCvtWDQLCuxSAYBll+qjbCiwUgUAlpV2LJoFBXapAMCyS/VRNhRYqQIAy0o7Fs2CArtUAGDZpfooGwqsVAGAZU4dqw/o7jrrN3NSHZ1gl5xm13Y8pj0Jzx8wnmm/u5mg6yS+9ExgmYVNm6kbxeET9+Jpf+0nA3I7ZN5wL0cBgGVmfUUTM0wqAos6DpOqmx6BGSe5nLghD2MMH7uZNPXRE3PPHjZOAPFnBbeByPv3nglMBSQHliclqnqnYfEN16NELZbrqgcsxwfmxatnzPPi34u3j2zPHd0+l/hTnIsPj8xb19L4Ie21A+NSlut4ZyWI/4LTf/UlWMia8ZZAF1gkUFzt2i0TCk9ARh4tNxCkLY0wcxfJiXpn4MR1Suud5hjfAJaoxXJdVYCFwcEgsd11fGAuKrBcfJjvyGz6fNQCvm5iWetgK7C0WSHuviSa5DzhQ6UbUJEAcbGkVWSXNN6ialpFVL68m0lbWqFU5QBYlCCLfF0/WNhSuXm3tYMYHHMASzLhe8HiJmFuz+L8jUNz+Tm9TxJB8fj+JXOerAveD2lAxcuVXdrEfKKo0s/VKy6dXCxYLFGtXbi+98SYdz50/8g95t/qwdIHDRK3Lw6HJxbPGL1iJ7dbVlhrQoBFTkrpbq9GXAJFWMnJL/dDHAhygAp+DCBbYMzH1iWz/AnpKMxbNcPq7erSsKbaG4qQAQoQSL7zQfpvTLhUBha1b+L3ShgcYQ/l6jnz1nHsLQ4fFSwElf1Dc7gX74y+fCNu3spJKd2xlnq/ZABYZOIe9719uayJIEqskjarx+fdVu+0aIAl1aPMG1kqGizkN9ZfZWBhGe+ai7SJq8Cyy6XQvX2+IE1M4GCxxIlM/yVPJ2jcywgbsRZSl8JSiOI7C4DyEfnbr0H8HvOxG7jWynDlSnjETWaXLr53bOBmN525L/QTYNGKlHgHWEqoKPN4+Kr74pPsscwPLK7KeuL7hlhL4IK5vM+AEA2kMLGBen6f9k74EzLDyt3y2Lg6VqR1X3f8nkzwb4IlX89MvUMesa4pEKN/6gJYUj3KvGEpVEbHJJc7N91n42iRLAgsdvPUbbJGy4P3R37T/Pvky0tc/gRQ0AS3eyAMGbZQ1NJJgiC4BViSTdwUJBYYvM9C1okt00NK9ATAIsTYgZPggs3bwsLzPkncRzljeM+kK4yqweEcv3DVRHbphHUTNH65aYDFWyrxfms5mR0UnmXwMKBCGrH08T+QC0ueHFiCH1VX1ZNbwGV4yOgN2ARADKKWp07LReC5DAVWv8eyjG7gWvKEZShIUPCP1+JeBk0+t8cRrRDKiSdwbnLaMIILWxX2yUslXw8BEc6LrB7KL76zBRTrw0sybg3H5XrY9+TrEseUT9d2TiND4F6OAgDLcvoKNYUCi1EAYFlMV6GiUGA5CgAsy+kr1BQKLEYBgGUxXYWKQoHlKACwLKevUFMosBgFAJbFdBUqCgWWowDAspy+Qk2hwGIUAFgW01WoKBRYjgIAy3L6CjWFAotRAGBZTFeholBgOQoALMvpK9QUCixGAYBlMV2FikKB5SgAsCynr1BTKLAYBQCWxXQVKgoFlqMAwLKcvkJNocBiFABYFtNVqCgUWI4CAMty+mqDmvKBURskQVQoUFABgKWgmFtnpY52TO7maRzhqE6X04XzCXHaP7zL83GDp3X0nvTmT52L9fN1ydQ/HHeZFoG3lSsAsMypg2lihjNpfcXEMZGhqnYCC7BkJnSc9OLoSIITHw0ZLoVPj7V0ZfQcD0l14nzsebkCLKH+Lg+AJfRaVY4KwHLLnLz0jPks+fey+Vx289GV7nBzbE5eS/M4uWPM0+svqHQc5wVzcppb47cCiwCNbJtw5ywR9htyP1CABMAiVIUzp0A9YHntinlKCjBE+P3Oyw4Ob97y+jBEGD78LmBxdMUQWMKfzjMEbOjYxPKQ9zJrC6alWIYIBZO7/cDqHmsDYGlRGN6sQH1gCdYHgYOhwRDxsjBsrtM9q97iYRCxcvJZEixhKeELGLwU2sxiaVwKL9tjr/dQJ/fLcIBFqrEYN+4VKtpVCgwSAuwO1goXLNMwfGiZowDE0TmfLvhw3K7nVkshtZfS2Oz14WFvhC89ywGp3WIZsmRq7O/sHXa1GmETKICbEIuLnNljYQAwEDrBQhVSeXB6rivno/05fOhzm6WQtnQyZcqlkA62YW0wIn+ZPywWLd/s33F3c/EuktaHypyB0AsWn47j00awXSYp/23BkkxYn/eQpVAujmpq9rV1b6bdYrH5JPUUn60Ti6snj2yF4DmWAgBLcWU7wDJoj0VViOEiYcR+W4Ilu6Gag4YCQjadqnbutd2C6YZCWp4ASwKc7jxy9YHfeApgKVRc2y6wGGN4ozaAgvdUeD/lljkJYeIT8wgWC+1fhE+6rEMvWE47gbvSbRIWwUL1j1+auvLgxuE5pQLYvC2qdg9YqCy2OPi3Lonl4dNzGD0FaGxVOX2SbsNGKCskpO4DSy48JO5wtJVnk3RAIVnuUGQGCz+5zI48OAqeq1Wggs/Ny+i7dHkh6hzA4SZq+OLiv+5krRyRvM0pl0HW3bVxy2F7h+Yvb1zwVpWoD23s3r/k/Qkw/IUq96vethrBf00KACxr6k20BQrMRAGAZSYdgWpAgTUpALCsqTfRFigwEwUAlpl0BKoBBdakAMCypt5EW6DATBQAWGbSEagGFFiTAgDLmnoTbYECM1EAYJlJR6AaUGBNCgAsa+pNtAUKzEQBgGUmHYFqQIE1KQCwrKk30RYoMBMFAJaZdASqAQXWpADAsqbeRFugwEwUAFhm0hGoBhRYkwIAy5p6E22BAjNRAGCZSUegGlBgTQoALGvqzdAWOoQJhywFOeCYXAGAZXLJOwq0x0Xy6Wt9z9x9QCJvOnlO3pYogpxTnvQWy7p8Xx0pGU6wkxnk04bT7fgEOXmHkUwO9+oVAFjm1MWN82SNMbmJrc+r3QRIbZNdgsi6PWzo2MlHT8zjTXWiPNrK2jQvxF+cAhWAJXMYtr7RkA/DDgdm8wn93J98cj9f+v6Mvbt50ZfCexjZWwE8SOQNAcmJ+zKulUScd8vWSe4JsPAAqu5ZD1j4BH2GCL/3Xv/BUFnXpfBupEdAXN6npVNcEqXunmVXbtrAYsmpUo1ffWBJLiljaCgLhWGz4kvhaYSTVdK9D+PBI65XHXyiv4QU7m6eBVBwr1DRblD3CkmLhd36niC+q9laNQyfNV0K74BBl4sNAcX5/UvmPIFCAEZ3kbxORIfhffcK4CbE4n2Q2WPhZdAgsFCFVB6cnuvK+Wh/Dh/63GQTVn7xoXQdk56Lz01+8ou3F3LM+MyG0zJHlWfzlnUyxkKrK+9YClxjK4C7m4srrCwWmT8DodNiEQk4Pm3yjnDFqv0CpDc8M5PYWACJfY9cHFHtLmcWHCJBW7gDSfytjHuPV6zaZdbeobn36InIDc5dKQCwFFe+AyzJfosoONljEf7kZLhIGLHflhZLdhLnoKHAkk2nqt32ykBIN2vTTdxWq4PqsX9of4x3ef+Ceda6fVoNyLYKwH8SBbAUKi5zF1hqvhReCE3waoDA7cPIT9AihXW6zV93kb0FlM3D/XiuK53OB+/TKIDN26I694CFymKLg3/HklgePj2H0VNaKzJ9km7DRigrJKTus1hy4SHxcAcvXdwP4fzXoAZsXH4MFGnJRLBQHJ9e7bkMrw1iLl2BCj43L6OLWpczARw8WdOlBk3y01gHDIeuJVAjbO/QfGc/7qMYk/60v1EPC0v3NWkZvYBallIAYCmlJPKBAlAgKACwBCnggAJQoJQCAEspJZEPFIACQQGAJUgBBxSAAqUUAFhKKYl8oAAUCAoALEEKOKAAFCilAMBSSknkAwWgQFAAYAlSwAEFoEApBQCWUkoiHygABYICAEuQAg4oAAVKKQCwlFIS+UABKBAUAFiCFHBAAShQSgGApZSSyAcKQIGgAMASpIADCkCBUgoALKWURD5QAAoEBQCWIAUcUAAKlFIAYCml5KzyoUOh4kHXs6oaKlOFAgDLnLqZT1yTl321usUp/bk20Mlzg46GpFPgFIRsPZRfrgzvlx5L2RERQdUoALDMqatpQqv7eka/FN4efXnJXN5LT+ZvHEuZXFiWHkmZjWuBOBxOc+oG1GV7BeoBy/GBefHqGfO8+Pfi7SOr4NHtc4k/xbn48Mi8dS2NH9JeOzAu5fYdkOSwFVh6LBh/gVh6Gn/GWkkq1PYyJN2QOG35w3/pClQBFgYHg8R22vGBuajAcvFhvjuz6fNRt/M97VLIptscLO5AbU7XZ4VwPGpiX1y2fmCxbDcglpt6/WBhS+Xm3dZeYnDMAiynXgrJiZ9varIXYpdAF8z5QfswOr8h1siQODpfvI+pAO4VKqhuHzSoqL44HJ5YPAXrGLLaainEVkLP098VdG+frAma/B5IvdaSBBcsltBnC3HgJsTCHcVQcNaI2jfxeyUcJ+yhXD1n3jqOFeHwScDS+hVIA0NM9ByQYvWDK7FYrK8AS4g1xDHEGhkSZ0hZiFNCAdzdXEJFkQdDIV3m3DUXaRNXgSWNEzPhPEYHCy1P9O2DdslyaNwNhb5Oek8lFydWv8MlwUJuDS/xnizReuKGfLDH0iH+pEEAS2m5H77qvvgkeyzzBEv2NsQcNBRYsukG6ajBIqwgmb5RB0rXB40hcWQhcI+pAJZCI6h756b7bBwtknmCJXtdamNSG2MSsLirVxvXmw7S8TRgoTTxInh3f7Pzo9+zyHrYpVdi6QyqFCKNpAA2b0cQlpczcR/ljOGlTVcYVYXDOf4I1VOwECX0gSUXLpJ3OzVYxNInLGe8nwWEvz/aL9daLSUJPl+/7nogdG0KrP9z80J6rHWSBnCUvRTeyaLBMnQp5EW1AMnDyFkyCxEf1SyuAMBSXFJkCAWgAMCCMQAFoEBxBQCW4pIiQygABQAWjAEoAAWKKwCwFJcUGUIBKACwYAxAAShQXAGApbikyBAKQAGABWMACkCB4goALMUlRYZQAAoALBgDUAAKFFcAYCkuKTKEAlAAYMEYgAJQoLgCAEtxSZEhFIACAAvGABSAAsUVAFiKS4oMoQAUAFgwBqAAFCiuAMBSXFJkCAWgAMAyqzHQPL/Wnhurj4nUJ/nbNvgT5pIzZtOjJJtNpfD8odj2lsRsOcZk66Tr6N9xklxT9Rp8AJZZ9XILWOQEp6Mq9bufxO4gaw+TlolOB17Hyd4OlvTA7lQkCxZZhzTYv7l6xLKykeC5UgUqAMstc/LSM+az5N/L5nPZoUdXusPNsTl5Lc3j5I4xT6+/oNJxnBfMyYa3xrt7lOX5se78WfJPJqcGi22HBpI8yzY2tHmurgRLPGmf4JP7x/UAWKKmcOUVqAcsr10xT0kDhgi/33nZweHNW14hhgjDh98FLI6uGAJL+NN5hoBNHQoQ9rBqtVSRB1gHq0Gl67i0PYGDBIhfQjWvICHgpHUAWDbt1/ri1weWYH0QOBgaDBE/ABg21+meVW/xMIhyY2QMsOSgkinbTnIJCL6LORO36SUtFg6VfhpYLg7Awlot64l7hYr2lwKDhAC7g7XCBcs0DB9a5igAcXTOpws+HLfzKZYj+w86N0nlxWBuP8QtXy7fF3kkwInLm5g2QqQJqBg/LIu8VQOwdHbiLANxE2LxbsnssTAAGAidYKEKqTw4PdeV89H+HD7gKfdY4sQnSOi7fnJLk0vm/B7dQugsjGfV0kUWny51OH56g6GhfZxGuTEXgCVqsRQX7m4u3lPS+lCZMxB6weLTcXzaCLbLJOW/BVhcTs2lh9681e+G9lP2D82hBQvlwuCJ0HAWh9snYbDQU/sHy6TF0uGvUQCL7/cFPQCW4p3VAZZBeyyqQgwXCSP2GwEsDhTxrmSe3FwrmuRsqThLR4IlWjv39lOwuPQEH7kxq9+NsdZL8tsY/zuWsHHMNdFPBzbeLNaheJ9WASyFiuvdBRZjDG/UBlDwngrvp9wyJyFMfGKeyGKxcvCXoMxkvnfj0Dw2bhI3wcJWCT37wWItEbZWqKyWJREsluKDdJIMsXlbVOYesFBZbHHwb10Sy8On5zB6CtDYqnL6JN1pGiEB4dLzkoWgId1p7jIdWyxpDH7jpZB7p3TSYvGxGGQeMtrqSADEIGp56rRcDzzXrUAFn5uX0YFxstLyxYGC9jziRm5sBwMmLot6wGItD7Ze3PKorTy7z5Jb+ohf7MJiiX0BV14BgCWvC3yhABTYQgGAZQvxkBQKQIG8AgBLXhf4QgEosIUCAMsW4iEpFIACeQUAlrwu8IUCUGALBQCWLcRDUigABfIKACx5XeALBaDAFgoALFuIh6RQAArkFQBY8rrAFwpAgS0UAFi2EA9JoQAUyCsAsOR1gS8UgAJbKACwbCEekkIBKJBXAGDJ6wJfKAAFtlAAYNlCPCSFAlAgrwDAktcFvlAACmyhAMCyhXhICgWgQF4BgCWvC3yhABTYQgGAZQvxiie1R0LGA7DppLZwtKM/LjJ3opyux6AT3pJT5fh0ufhMylH10uXRe1LXXAT4VaUAwDKj7taTMz2f1lXUHkupjo5Mm0Bn3uaPtEzjxbdcOcml8BIsPUDKXSGSQCoWC9eKFagHLMcH5sWrZ8zz4t+Lt93N7Ue3zyX+FOfiwyPz1rU0fkh77cBseOf7gCGkD7bW7/ksrHXScpB1bpJbv+S0fwJRtJJCKRIm0h0ipA4NxTQUb7UpUAVYGBwMEtvJxwfmogLLxYf57s+mz0fdwtdZGq0wyMEjAQQV3X1Cf65yOTDZ5ZeEiXSbeFvAoLp2Wle5GsFvDQqsHyxsqdy829pfDI7dgkVV7/6luL+igtpe0yXNEItHg0ic9i9hIt0thcNiaRFmRt64V6hgZ/RBg4rqi8PhicVTsI7NrNwEb7cIMncBDdz7CJvBfsM1XiFiTOu+igCL3ePJWU9dfg3Lqtli+IyrAG5CLKwvQ8FZI2rfxO+VcJywh3L1nHnrOFaEwycDC01kuo95n245VP3XRWEAACAASURBVH8EEL28oPh7F8z5ZK+kabEQFAJYGBb2GW9JDKDhcCpeulV16NXle2gu63pl4sJrNwrg7ubCujMU0mXOXXORNnEVWNI4sSKcx1Rg4XuW6YrTAAJbHbcPk35l4eUMPeUmbDdYQhmPnpjHFhzxGlZblISJdEdZrMvu0XiLRLrd9axnTQCVSofXaRUAWErr/fBV98Un2WOZMVjIIhFLhzhZ3fIoBY2zFhxoNgNLKrMDVpK3hIl0h4S8XEuXZWGpJNoQksCxMwWwFBpB+js33WfjaJHMFSwaDk4MCxdxxWleIp2222KJeTioSJjFMO/SYLH7OQSUZhmUwtU3BU4jT3hMrgA2b0eQnJczcR/ljOGlTVcYVYXDOf4I1fOfiuUP29giOOv3VPhdLndkTdrA4sFhN1fVZPcbvomlIrNktwCLtUiCNcJgiWXEvLi+WA6xjDU91/+5eSG9GTZW/WR/9jkFgdCOOIk7rQx7sXxbHpQZ5dMVLsBAUAowCRXxm7q0N9MGOxEXzqoUAFiq6m40FgpMowDAMo3OKAUKVKUAwFJVd6OxUGAaBQCWaXRGKVCgKgUAlqq6G42FAtMoALBMozNKgQJVKQCwVNXdaCwUmEYBgGUanVEKFKhKAYClqu5GY6HANAoALNPojFKgQFUKACxVdTcaCwWmUQBgmUZnlAIFqlIAYKmqu9FYKDCNAgDLNDqjFChQlQIAS1XdjcZCgWkUAFim0RmlQIGqFABYqupuNBYKTKPAAsAiTkzrursmhA08zYyOW2y9roKPXGx2Qno0YxrOZ9O23wcUL12PRzimeeANCqxBgQWAJcpMkzq9+iKGNV3qaEUGDx+xeEqwdN2xE0/Ub9Ym+rh6ASxREbjWp8CCwNJuRZyqWwaDpd9iYkgALKfqCSRaoQLLAYs9KT4uJXLLjUHWTDisupkXAaKxnPHLpaa11DyMGmBZ4QxBk06lwCRg+e47t83Hjz8JFSQ3+W30R0Do3BPZZJlkjL2pT+QXTsm3lcpZR9LPLWc0yACWjXoUkVeswCRg+eDDH1qQEFAYKuS3yV/3pJWT3ufaYZlYIChQtYGlYcHwXo18ekB115Fb66DEyyf2xRMKrEmBScBCgjFcyFLZFCqUvrkUkd3QXJaE0Ja9lBQC2gJx77TcSqwSC6v2r05pnqEGygGwKEHwukIFJgMLaUdAOQ1UjL18q7knku6z5C/fagNS00JxECF/l6/LL76zf+bpvzQBLCucIWjSqRSYFCynquGgRGSxZCwJaa0kSx9t4eQsFgkqCpfvzT0aqibAMqizEKkCBdYBFvvFqAmWe/seBuKLEi1trBXCv2exnUygkcueFCQWGLynQulalkQASwUzBk0cpMB6wCK+8NiWC5iEr0nBT0MoZ8EoC4UyDendckhvwCYAYhC1PHXaQb2FSFBgIQrMHiybTFbec2mftClAkrzllx0LA4KPWyJxvgFQvnM5PZdn3xNLKDcKXJ6cJhcDflBg6QrMHixLFxj1hwI1KgCw1NjraDMUGFkBgGVkgZE9FKhRAYClxl5Hm6HAyAoALCMLjOyhQI0KACw19jraDAVGVgBgGVlgZA8FalQAYKmx19FmKDCyAgDLyAIjeyhQowIAS429jjZDgZEVAFhGFhjZQ4EaFQBYaux1tBkKjKwAwDKywMgeCtSoAMBSY6+jzVBgZAUAlpEFRvZQoEYFAJYaex1thgIjKwCwjCwwsocCNSoAsMyp1+9fMvZkOTpTV55ER0di8lm7+ghOqr89MjMet8kn24WT78LxmJnjNk16qp49z1eWPSd9UJfFKACwzKar1DGYHgYEmvwVJAISObA04KAAwu1Obi9wdUjuUuJ4eEKBDRSoACy3zMlLz5jPkn8vm8+lSEdXusPNsTl5Lc3j5I4xT6+/oNJxnBfMyZEsYIBbWildbmWxaOgQiDaxWCh9OH+Xyg3WTeb+pL3DAQ1BFChgTD1gee2KeUo9zhDh9zsvOzi8ecuPB4YIw4ffBSyOrhgCS/jTeYaADRxtk3r/kr2aJDfhAxCUxTK4VFsmWz7CWiF/BbDBeSIiFDA1giVYHwQOhgZDxI8Jhs31Y2OMt3gYRLlhUwIsNl+a3G6ikyVxeT9OcPt+312K1liqSLAoQIV7lIIlwnsxvPRy5SU3DAAsuV5evN/3nhjzzofuH7nH/KvbYmEgBGuFpZYwYfjQMkcBiKNzPl3w4bgdzzi5/aSnfRILjXiZWrLMYavCx3n2uQvm8IbfABb3XTOU3FW1DiwunwvmvAUZlcfA8bc8BhDFJVEDaB1tQdC8FCCQfOeD9N+YcKkHLHKPhQHAQOgECw0QtU/D6XnscD7an8MHPGnyn2b5YdNZCHgwDLRY3C2R0UJKqgiLJZFjDS9kqWiwkN9Yf/WAJTfpGQi9YPHyc3yClF0mKf9cGRv2XGKRZKwGu9fClgrnLZdC7Oef0VpRAfYVYMmpskY/gKV4r8pljc6clzlqiZPssag0DBcJI/YrBJawKUtFk/UgPx0TRFrBQp+U49Ilt+Fr/UJ+HWDJ5JPUS8mC13krgKVQ8f7pAosxhiESQKFhc8uchDDxiXlEi0VOYLJg5Lvdc2kFSyoeLXfO7521+yj5/ZEOsOgy0qzxtkAFCC7YvC3WcT1goXLY4uB9mMTyUPsrFEeAxlaT0yfpTteACJIO60NPerUU4uUUfxHi57PPiQ1aWz2A5XS9hFR9ClSwx9InwUzCw5cdXsrw70tU/UI8ggSBwcen5Y3fuJUWTrrH4mEVwASwKHXxWkgBgKWQkMgGCkCBqADAErWACwpAgUIKACyFhEQ2UAAKRAUAlqgFXFAAChRSAGApJCSygQJQICoAsEQt4IICUKCQAgBLISGRDRSAAlEBgCVqARcUgAKFFABYCgmJbKAAFIgKACxRC7igABQopADAUkhIZAMFoEBUAGCJWsAFBaBAIQUAlkJCIhsoAAWiAgBL1AIuKAAFCikAsBQSEtlAASgQFQBYohZwQQEoUEgBgKWQkMgGCkCBqADAErWYpSseVblp9VruauZs1DUh+uDt5IxcdfQlZyGfp6+nzAXutSgAsMylJ3smup749E5HUPL5tjLcQoHyC0dQdjcyPb7Sx5Uwke5T1DOBVHdVELoSBeoBy/GBefHqGfO8+PfibXdz+9Htc4k/xbn48Mi8dS2NH9JeOzCb3vl+2vGymSUQz7CNF5nxGbrxKc/ENYYsG33ItvE3MHp/CZaWhmxWz5ZM4L0aBaoAC4ODQWJ77/jAXFRgufgw36/Z9PmoW/nmrA9piUh3gANZEOGeIL/8uX9oztN1q490dZrLo1yZNm8JE+n2V7fKunS6B1pNuqZ4X7YC6wcLWyo377b2FINj12BxdyvHe5qzFc4sccg6CTDYOzSHdF0rwyaAx53oH4BkM9egcXHs0kXCRLqzlXKX1ad5t0SE984UwL1CBaXvgwYV1ReHwxOLp2AdY1ZuYndaAHRDYcMKIECcNZf3pfXicw1giaWwy1orDCDylABpcXctsVrrLcvgwvGcVAHchFhYboaCs0bUvonfK+E4YQ/l6jnz1nGsCIePD5ZYpru0Pb637oVwFAuCprVj4dEAkYCITeeWTRYaDIEWsHBx8ukspkNzOVeOjAj3zhTA3c2FpWcopMucu+YibeIqsKRxYkU4jynBou9sJkB0LjU8WMISyFffWRjN/ZYArkdPzGNOK/dlBoJFWj3SzZen6fpEVeGaUgGApbTaD191X3ySPZb5geVUSwxhITir4YG9GTEAiOBAcfjZqq1bSoV0FK8XLLxsS6EV2sGWT2uZCJhSASyFRlD7zk332ThaJPMDi2s2TdZ0ojbkkBOeA+WGboBIujHrwPOEU4ing0qnZaHLpPKsdZOvr7VcpPUjSoNzdwpg83YE7Xk5E/dRzhhe2nSFUVU4nOOPUD2fJVsB8Tcn+Q1R8bsTO+kVjMLElzX1eUtLwsbzX5RkVO0WYLEWSciDweLh5H+055KLtoT4OmO8r1WB9X9uXlTP8UTtqLSY5BSLJrr8Zau1FsQSKc1JwiW1aNJ49CbAQF+icnCwdSEICtA1M4JPhQoALBV2OpoMBcZWAGAZW2HkDwUqVABgqbDT0WQoMLYCAMvYCiN/KFChAgBLhZ2OJkOBsRUAWMZWGPlDgQoVAFgq7HQ0GQqMrQDAMrbCyB8KVKgAwFJhp6PJUGBsBQCWsRVG/lCgQgUAlgo7HU2GAmMrALCMrTDyhwIVKgCwVNjpaDIUGFsBgGVshZE/FKhQAYClwk5Hk6HA2AoALGMrjPyhQIUKACwVdjqaDAXGVgBgGVvhwfk/SK/P8MdG5o+mpFPb+DjKrlPn/ClwbSfKqdPo3Fm1uWMxuSzZGHUCHdU3d8qcTAJ3NQoALDPq6q5jJSksOUVf1tsCojn57fm0e5fM5b2Wc21zYGnAQQGEyyWQBGA5gMkjMjkannUqUAFYbpmTl54xnyX/Xjafy/4+utIdbo7NyWtpHid3jHl6/QWVjuO8YE5OeWt8OMNWWQApWGiyq3NmVXwHlUPz2LaT4qdn49pwOsvW/yNobWKxUPoAOipb5NVw7x1KteGuQIF6wPLaFfOUOpQhwu93XnZwePOW726GCMOH3wUsjq4YAkv403mGgO0ccvJGsDjrIEzqRhEOIs1lifNP0imLpZFVm4cFCVtIwloh/2DFtCWGfw0K1AeWYH0QOBgaDBHf5Qyb63TPqrd4GES5UVEALId7bD1ISyRaJgEs9y9FSyE5Sf+SuWdBkVomurrWUuHljgSLsjpoWZNaNVwvv2/j93islcP5ASxa7lm9416hot2hwCAhwO5grXDBMg3Dh5Y5CkAcnfPpgg/H7XxGkOhoASw6wL7rdPrdGH1lq03mQWQ3gm9EYBFQGCxu34Rg4sBiQfLcBXPeXqwW/W1+Ck68JMLeS7bTJvXETYjF5c7ssTAAGAidYKEKqTw4PdeV89H+HD746YEQJjxbMS3PsOzQIBHvIq/L+w/MPV+XaI14S0RBgcHCcOC7g9ydzwQUXgqJxsFiEWLMy4m7m4v3h7Q+VOYMhF6w+HQcnzaC7TJJ+ZcCi6omvW5usTCMMgDg/OVSiP38k60W5e1fAZa8LvP1BViK900HWAbtsagKMVwkjNhvVmDhPRFZf2HJkHcAC/kziDqevJdi93YywFJWD1s7yYaxrA7ckymApVBxqbvAYozhjdoACt5T4f2UW+YkhIlPzCNbLPf2UzAMs1iemMN9+sSsAMKaBpB4D/3uvWm5c55++7J3Ibm+lbNx16+2gCUsz2JsuOahADZvi/ZDD1ioLLY4+LcuieXh03MYPQVobFU5fZLuNI2IloP+r3w/WMjS4MlO+bBb1EPvgSiwuI3ZdOPW7cWkkANYhKZwZhWo4HNztt3z9LRLCT2JXVU7waKB4S+L56VIfDJsaI/EL3loeeOXMBJm6R6LB16wRrDHMs8BNJ9aASzz6QvUBAqsRgGAZTVdiYZAgfkoALDMpy9QEyiwGgUAltV0JRoCBeajAMAyn75ATaDAahQAWFbTlWgIFJiPAgDLfPoCNYECq1EAYFlNV6IhUGA+CgAs8+kL1AQKrEYBgGU1XYmGQIH5KACwzKcvUBMosBoFAJbVdCUaAgXmowDAMp++QE2gwGoUAFhW05VoCBSYjwIAy3z6AjWBAqtRAGBZTVeiIVBgPgoALPPpC9QECqxGAYBlNl058aXw/tS4eLpceoh2cheQOsIyJ1nnCXe5BPBbtQIAy4y61545G45/TCvWOXHtxOdjJ2M6e15t16XwPmp6DKX3lDCR7h4g5UCVQCpWD64VK1APWI4PzItXz5jnxb8Xb7ub249un0v8Kc7Fh0fmrWtp/JD22oE55Z3vvUMpTHKawOG6DX2vUOYUfhXfQaX9UvhYkUxeFChhIt0xYeLqBF8SEy81KFAFWBgcDBLbsccH5qICy8WH+S7Pps9HLepLcOADruPEdQdhs3+zQH/wtYCSi+P8dTprJak7hWwcCRPpbj2oO11KBculxQJr1hs+a1Jg/WBhS+Xm3dZ+Y3DsEizh1Pzn5Cn90ZoIYCl5Kby9f0guoRy07NJFwkS6W1QM9WsJh/fuFcC9QgX7oA8aVFRfHA5PLJ6CdYxZRZBEP+fqnrg6nX7PXwpvrRVp2UiAtLjtEktZOME6afOXZeiG4X0SBXATYmGZGQrOGlH7Jn6vhOOEPZSr58xbx7EiHD4ZWOykbllayMkblhkaJOJd5CUvhQ97KDbcWS0WGgyBFrBEVaLLLdkOzeVQnxgG1zwUwN3NhfuBoZAuc+6ai7SJq8CSxokV4TwmA0ssOrg2t1gYTHKpE7IzdI3q4SPapH1iHgf4iLgDwSKtHunmS9DkBnQsHa6pFQBYSiv+8FX3xSfZY6kBLHKvhkUVlgx72Sf5x41i69ULFr5NUcBIbuyy5ZOUg5ddKYCl0AjK37npPhtHi2T+YJnkUnirtYNKp2UhIUNp7G9ZCCj5q1at5ZK7O3qEvkWWwxXA5u1wrQbH5OVM3Ec5Y3hp0xVGBXA4xx9c6MYR/STX1oPRv2PRGXM6th7ond0iLgFB7oNYQChLRUQPTgGWZB/GMFi4fJkXWzRnk9/jhDzhWLUC6//cvKTusxM9t4TpAYsGhlySyM3eBDYt8Al6CTBQHrmljQUO7eXk6xyygqM6BQCW6rocDYYC4ysAsIyvMUqAAtUpALBU1+VoMBQYXwGAZXyNUQIUqE4BgKW6LkeDocD4CgAs42uMEqBAdQoALNV1ORoMBcZXAGAZX2OUAAWqUwBgqa7L0WAoML4CAMv4GqMEKFCdAgBLdV2OBkOB8RUAWMbXGCVAgeoUAFiq63I0GAqMrwDAMr7GKAEKVKcAwFJdl6PBUGB8BQCW8TVGCVCgOgUAluq6HA2GAuMrsAywiKMRG5JkTk9rxAke7gjF/ruE+cjFkDA40qMZg7d1uLNe+XT87qe+kTDNCW9QYNkKLAMsXWe+bgQWPgi67yjFdrCE+3gy/Z5cf5EJd17uyEeApVUgBKxAgcWApVXrFrBsYj3wTX5xskuwxIOiOZ5+cjqApbWXEFCZArMHSwMQ8pR56qwWsKT9SKBQVgotr3Re3jJKwOHj0BIoXUI1D6MGWFLV8VavApOA5bvv3DYfP/4kqExu8tv0z13l+cTYfY7k9Pl0P6MJALqW4oF5TDf/iT8HLQUcGy4tFk4g/citQeNO0s+eZs9ZhLzlNRlJIF6gwCoUmAQsH3z4QwsSAgpDhfw2+muzTNr8KXN/PcXlGznrxFscNy6ZZ5NrMShhhEjDYsoBzVs1sFg26lFEXrECk4CF9GO4kKWyMVQ8IM7vXTC8nxH6pA0sNk28tIutHU6XQKCRh7NIaEmUWD8Ur+MOnSRPLqjxdHk32tGIBw8osFwFJgMLSURAOS1UeJLT5G1M9sxeSbNLxJ6Igo6MG5dZDkrxPV1uJfsw/jIvgEUqCXfNCkwKltMIfW+fJnh+T8Pm17A2Okrxlg9Dqj1mXAq5OPo9v2kMsLQripC6FJg9WOLEVssS7qfBYHFwYkujeymSgsQCg/dWyDppWRIBLNwpeNauwPrBIqwUCZMAi9ydxGLzNhkgIi8ClMyP4oU8GUIdT502KQcvUGDhCiwPLGpyswWSPPcfxEnet/9irQ+3f0KTPcKBPkOnVs6zKi+Oy5Cw71lQyVHi8uQ0MgRuKLAWBRYClrXIjXZAgToUAFjq6Ge0EgpMqgDAMqncKAwK1KEAwFJHP6OVUGBSBQCWSeVGYVCgDgUAljr6Ga2EApMqALBMKjcKgwJ1KACw1NHPaCUUmFQBgGVSuVEYFKhDAYCljn5GK6HApAoALJPKjcKgQB0KACx19DNaCQUmVQBgmVRuFAYF6lAAYKmjn9FKKDCpAgDLpHKjMChQhwIASx39jFZCgUkVAFgmlRuFQYE6FABY5tbPdEKeOqkuVDEbRrcP5C5dG3CBmj2NL6blE/GS0/js8ZrxGpVQFyNuPSBPOomv9/S8mBqudSsAsMywf92VI3HCuyq6Iy2Tq08o4NETc+/GhcylaxTYcwxmDiwNOCiAsF7JIeYtdeO4eFanQAVguWVOXnrGfJb8e9l8Lrv66Ep3uDk2J6+leZzcMebp9RdUOo7zgjk5kgVs6m4CwcKmMeljvnze7pB7kAhOOl563q++Q6lpsVD6cG6vODe4ae2cNXRWMP7qUqAesLx2xTylvmWI8Pudlx0c3rzle54hwvDhdwGLoyuGwBL+dJ4hYDOHnuzZScon//vlEgElTPBGcT2WhLJYGsnbPCxIGDaijMSKaUsM/xoUqA8swfogcDA0GCK+yxk214+NMd7iYRDlRkUhsOSy7gaHMY/vXzLnCTZZa0ZM+lzmEizK6mhaNbw0c3nyfddsKdnsAZacyrPx+94TY9750P0j95h/9YFFQoDdwVphqSVMGD60zFEA4uicTxd8OO6Gzz6w2OwkIJL8h4CFlj0XzOGNS8HyIcuJweL2dCgfBxYLkucuGLpH291QycDxG7hsUYmnyyOpGF4mVoBA8p0P0n9jwqUesMg9FgYAA6ETLDQC1D4Np+fBwflofw4f8HQTVu9tdL/nlkC9+fglVFx2eTAMtFjilbe8FBKNg8UixJiXkywVDRbyG+uvHrDkJj0DoRcsXn6OT5CyyyTlnytjq56jLzJu8/NxVz5bWSzC4hBlsNUivISTLBiARQgyeyfAUryL5LJGZ87LHLXESfZYVBqGi4QR+xUGC01ua5XQPsqN9kWxtVK22mPxABPLl+zGcSijAyyZPLrqrtTF60gKYClUXNgusBhjGCIBFBo2t8xJCBOfmEe1WNzeiNyQtfDI/nDOxc3vY3SF0W9gDs35zI/raLlzfu+s3UdpzxcWS/GhOnKGBBds3hYTuQcsVA5bHLwPk1gean+F4gjQ2Gpy+iTd6RrAex/ZCe33QRILoAUOrvTNwML7M1Q2L4VcffRyifIFWE7Xw3WkqmCPZRkd2QkU1QQGAFk0chkU/DPLkWRps/cH5uqe3xim5U0GWAwWV7Te6wFYVJfgVSkAsChB8AoFoMD2CgAs22uIHKAAFFAKACxKELxCASiwvQIAy/YaIgcoAAWUAgCLEgSvUAAKbK8AwLK9hsgBCkABpQDAogTBKxSAAtsrALBsryFygAJQQCkAsChB8AoFoMD2CgAs22uIHKAAFFAKACxKELxCASiwvQIAy/YaIgcoAAWUAgCLEgSvUAAKbK8AwLK9hsgBCkABpQDAogTBKxSAAtsrALBsryFygAJQQCkAsChB8AoFoMD2CgAs22tYNgc6ajJ7tq0/o7YRRqe76aMjXZXk6XKNSqrrPpIT5p5z9wqFNJ3HX8aykiMzQ2I4alQAYJlhr7efM6smPNV9m0vhfdvTYyi9p4SJdPcASQOK3rPn985Qd1SpnAL1gOX4wLx49Yx5Xvx78ba7uf3o9rnEn+JcfHhk3rqWxg9prx2Yre587+0/dwi2tAAsbML1G80M2DpxUOq+6Cyd6C0Wj4SJdDeLtj5UvqxvSzR4V6JAFWBhcDBIbN8eH5iLCiwXH+Z7PZs+H3Ur3yFQCBaBXxJ1T+ieU/qNcYdxq8O3LSAkTKTbuBP8Qz1U2oZ/Y+m2lURIvBAF1g8WtlRu3m3tEgbHrsGSq2A3OLa8FN6QtSKv8RAgkjCR7lwlPaBgsbSIMxNv3CtUsCP6oEFF9cXh8MTiKVjHrqz6wGLTtk58AYpMIZS3vBQtucBM5incG1lVbM10LOEy1YLXCArgJsTCojIUnDWi9k38XgnHCXsoV8+Zt45jRTh8TLDYSc4TceAzZyH05sNLE4aFfTqrJdnH4XCSQbqjLMFF6c7fODSXOe8QAsdcFMDdzYV7gqGQLnPumou0iavAksaJFeE8xgRLLE269EVhMky4Wyd+u8VC16gePnJflR7b9LThK5ZFMk/pFsWSU1o90s2XoCUWkUqL1+kUAFhKa/3wVffFJ9ljWQZYnCXwxN5UmLNOWKpkQrOnfbaDJYlm91r8BfQcIGEi3RxuXN4JjOTGLpY/Qak5OLAUGqEX7tx0n42jRTJ3sPhJKyanhUd2qdEFj64wFtpbRaIsDglPDRb7Wxaybih/YeX4BLau0voJGcGxSwWweTuC+rycifsoZwwvbbrCqCoczvFHqF7IkjdH09+a+ODMHcvd+x89YMnlF2oiHAIsyT6MtVoILB5Oz0mrx5VtPz93QUsUA+d6FFj/5+aF9FUnUFQbnEVw1n7Rkcug4N+3+WstH/2pWRUSljri8ngdxQKHwvP/S4GOjvd6FABY6ulrtBQKTKYAwDKZ1CgICtSjAMBST1+jpVBgMgUAlsmkRkFQoB4FAJZ6+hothQKTKQCwTCY1CoIC9SgAsNTT12gpFJhMAYBlMqlREBSoRwGApZ6+RkuhwGQKACyTSY2CoEA9CgAs9fQ1WgoFJlMAYJlMahQEBepRAGCpp6/RUigwmQIAy2RSoyAoUI8CAEs9fY2WQoHJFABYJpMaBUGBehQAWOrpa7QUCkymAMAymdTDCqJT4NoPzu459Y2Omsyci2tPltP+/ljKxs2F/vS55GhMcTRlWyu6692WCv5rVQBgmUnP0sSkyRwmqICEBYM/N5aOsEwmfah/2/m2PTDyJ+s38pQwke4eIOVA1cg71BmOtSpQD1j4qtW5XgrvQXLPWywEEGe5KDDISS5HJaXPHFotoSSjRzflnzmzVpYj3TFh4gpATHzxUqsCVYAle8r+7C6FdwC5vH/BnN+/ZM77yZ6eiu+GadNPwSdAJoWGhYxaElk/dfi2BZqEiXTLu4NUupy1klua1TrZamr3+sHClkpyYVnaxQyeeO9QPnyK6z+S//J7K+ZxWh37JuGSpLGXjzkLhOKEZYiFg74DSAHJn8xv00iYSHemLuSV1qElErx3qgDuFSoofx80G/cBawAADjJJREFUqKi+OBw+JlhylkOAQpceBB9lOdh0GX+9KWzLlMsnCZAWtwWaKk+X33iXZXS1BWGjKYCbEAtLy1Bw1sh8L4V3zXYbsBEA4tIvNZljHCFYWAIJP75fWS2BwkVnFiDOkpFWUAinrCRk0qztG6XDpfAZYWbkhbubC3dGChbOfKZXrNoJnLkgjPwFGLLLDhWHW9oGBVwKHxSqwgGwlO7mxVwK762VPfc7FgkPvWSRYU4usUlrl0B+L8WDyi2pKA5BS++zUA4uLLGCbFr/tUi6Q/+wNZXmF5ZKWP4EpebgwFJohF5YwqXwFh57h4Y/N0cZ3KSX+y1u6fHER+EJri0d5Z/7pGxz8MDpAoEGS4AXlZGChbK0bckCLLYKrukVwObtCJrzkmiul8Lz0iS1Rjwckknv/CRoTi2X3+BNLJVcZgIsyT4MLoXPqQU/Y8z6PzcvrJsDWOxk5h/J8Qaqt0qE9RGWHmpzt/FlRoZbUJGl0rQ2olzK4kng5mP5OuJS+KgaXE4BgAUjAQpAgeIKACzFJUWGUAAKACwYA1AAChRXAGApLikyhAJQAGDBGIACUKC4AgBLcUmRIRSAAgALxgAUgALFFQBYikuKDKEAFABYMAagABQorgDAUlxSZAgFoADAgjEABaBAcQUAluKSIkMoAAUAFowBKAAFiisAsBSXFBlCASgAsGAMQAEoUFwBgKW4pMgQCkABgAVjAApAgeIKACzFJd0mQ3WqWzihjU+OS5/Z4ykpjTjRv7U2/ljKtpPmkrxtPTLXsIrMw8l3wg/OehUAWGbV9wSW7gls/G2FuXuabVMIGLljJDvaScdbJiChuBIm0t0DpByoGnl31AVB61CgHrDwVatzvRSeJ3OXtWEnuDgHl9KcYqKn4GmBmYSJdLeMe1gsLcJU6l0FWPiE/uSK1JldCu/u/Ola6gw7nT9rfXQMbgKCtjLsqf0SJtKNS+E71EQQK7B+sLClsoBL4WmS87KhCYghYFF7NNzLrU8dX5QhYSLdLXnBYmkRZkbeuFeoYGewteLubs5n3BeHwxOLJ5/VFr40qfk6Duc+v5daMNqyeFYvm3qXRZy/q6a1VuR+jARIi/v0141sIQ2Sbq0AbkLcWsI0A4bC7C+Fp4nMoJCTOjRHWBPBL3XQpD+/fynmI4MJOpw/+XMZ9umAY6HBoOFwGVfmJ9y23BuH5rLMX4TDuXsFcHdz4T5IwcKZz/BSeGttuC9CDUvCVrsHLAIQzWUJLXnSLz9886J59MQ8tmnJOhIWzUCwyLpKd9hUZlCx9HjuRAGApbTsi7kUnq0It/zhvZYoRzdYEmvDf5J2V6c6qHRfo5qJ0wsWV58ERnJjF0CJXTcDF5ZCI3TCEi6F52ZbQNB1qI1lRQdYhLXD+YTfuyhLJYazy0El/QTNYf4pIUNetjyybqhOwsrx0a3lIq0flR1ed6MANm9H0J2XRHO9FD6AwAMltUBIkPwkNia3zPGbvpSXhQC9Z35458O6rRm2pFz6tF5cJw+n5+RvbBwI7YYzrJcRRvS8s1z/5+Z56x9qd7gnJ2XwNu6//gIUMci6aKLH3520LaMoapz8zjqh96a1EbMXYCALKgeHsDeTgVbMCK4KFQBYKux0NBkKjK0AwDK2wsgfClSoAMBSYaejyVBgbAUAlrEVRv5QoEIFAJYKOx1NhgJjKwCwjK0w8ocCFSoAsFTY6WgyFBhbAYBlbIWRPxSoUAGApcJOR5OhwNgKACxjK4z8oUCFCgAsFXY6mgwFxlYAYBlbYeQPBSpUAGCpsNPRZCgwtgIAy9gKI38oUKECAEuFnY4mQ4GxFQBYxlYY+UOBChUAWCrsdDQZCoytAMAytsKb5K/OlqXT48Kxkf60tsYh27nzbslPn5mr8nYnysWT3+gkupi3Oz0ufY9xdZOS0/l1IN6rVABgmVG3JyDxJ97Hye0qas+c1dDIwCWZ7A2o0Dm2T8w9e70qH08pz85NweLOuT00jx+xWOKYSzq2svUf583p8KxFgQrAcsucvPSM+Sz597L5XPbw0ZXucHNsTl5L8zi5Y8zT6y+odBznBXNyJAsY4qbJLCeifu/Og0BCELIQaJ3oBAFZhnFn6vJ5tgFAAiwELQ4PVeg7L5ciDokTMoRjZQrUA5bXrpin1HkMEX6/87KDw5u3fNcyRBg+/C5gcXTFEFjCn84zBGziGGoFCAuhMeGb5aVLnBiurSNr4QwG0tC6phCLpcO1dgXqA0uwPggcDA2GiO9uhs31Y2OMt3gYRLkRUQQsKuP7l+L+igqSr9FCye+BtILl0aG9HZGtEQ0aWUbT+hhijQyJk5aCt3EVwL1CRfVVYJAQYHewVrhgmYbhQ8scBSCOzvl0wYfjDnq6pcjwvQuaxASWvnTO2gkbwmK5sjlYhOXUaunAYhnU3RNEwk2IxUXO7LEwABgInWChCqk8OD3XlfPR/hy+6ZP2OvYPzeH+oXms0+a++FhAbGax6Gw3Xwr1QQMWi9Z4l++4u7m4+tL6UJkzEHrB4tNxfNoItssk5V8ILOHC9sZyiCar/CzM7WGLhd/9034t8paF/pJEUQSkYLEo7Vb2CrAU79AOsAzaY1EVYrhIGLFfCbCorzDWkrCbtG6ZE5cxsl4aLLwkilYFWyQyfczbfx1qXdIQnGJezT0XWRd2w2JhJebwxFKoeC90gcUYwxu1ARS8p8L7KbfMSQgTn5hHsVg0IJwYOSikMsV0vJmrf//i4jvguDDpdmCR0Gnmz2ChspzVRPVyaZwf7QnJcm29c5ZSmjneJlIAm7dFhe4BC5XFFgf/1iWxPHx6DqOnAI2tKqdP0m3aiDhhXUq2Os76X9Hyu95LiZO68WvbrirY36wwLIaCxdfBf+aOYFEFhd/DxOWWioHXlStQwefmZfQgWRr2v/5hXyRO+rQFAiT7D+wP4thKYGul/WuS32/Zf+B+GCesiSYkGGQdezQWID5cLaParZ+0NXhbpwIAyzr7Fa2CAjtVAGDZqfwoHAqsUwGAZZ39ilZBgZ0qALDsVH4UDgXWqQDAss5+RaugwE4VAFh2Kj8KhwLrVABgWWe/olVQYKcKACw7lR+FQ4F1KgCwrLNf0SoosFMFioDl6VNj/vYnX5j/93+/MD/5FP+gAcbAUscAzWGayzSnt/nbGixUAQAFE2mpEwn1zo9dmtPbwGVrsBDd0DnQAGNgfWOA5vZp/7YGC6yV9Q0oQAJ9SmOA5vZp/7YGCwYhBiHGwHrHAMCCTWMsSTEGio8BgAWDqviggiWyXktkaN8CLAALwIIxUHwMACwLH1Tvvn7W/PSX0n/feJf/i/nn5htfOmu++vo3zVdFHBf+iTn4WppO55O+f9O8a7WidOz+wvzk3W82yk/Sfe1t88OgsatPEi7qFfxf//PiA33of2kRj8fOdk+AJQz67YTc3YCkyXrBHLzvJzlNSjHZLUTef9t89UsOBgSiCJ5mmyn8q9c+6Z7YNn8BlzYNKV4ClmZ5Dd0oDcDSrX+b3jPyB1j6OuP9b5kvXz1jnhf/vvzOR7bj33/nXOJPcV75s4/M1YM0fkh78C3zfl95G4e3gEVO6NJg+fQL88NrF4YBSNbj04FWEsACsJyWTI3/Um08oQb812/LPBkcDBJb5/e/ZV5RYHnlz/J1yabfsk5N3dTygi0WmtAEFH6WtFiGtgEWy+IB0Rxv+bGu452WC+v/HQtbKjfutA4OBsfuwZJZCjFQ+KnAktubCXscuX0P8nv9T8W+TFwKkfXSmpbK9xZOa5y28r72dqv2eiDjfdiEP41Of/7DL8z/+kv3j9xD8gBYWv7r2wcNErcvDocnFk9LeUM6Kx+nYym0scXirJ/ePZZPKV4KlmyaARaLhRKWPoMma77/h03006YlkNz4i/TfELgALC0TnaHgrBG1b+L3SjhO2EO5es5cpU1UnyeHjw8W8XVnm6WQ3zh99/UIDW5L+hwIFq1tBjTO2knLG7R/o/PGexh3aV/F8Xgaf7JUNFjIry8vgKVlQDIU0mXOHfMKbeIqsKRxouicx/hgyS2FLrhPzC1LoebAcBur/BXpG51fhk4JlrAk8vUN7/FLlF2ife1t8+77PV+mWvqt2a7YHwjbXAuApfRA+7NX3RefZI9lzmBxyxjax/jq12jP45vmXW+B/MR+FWKrJk5qOdHshBZLEnpv/yy9AVgyVoqtz+tvm4OvXTDfeP2C+Wnr9vUTdZD1g3tzKJTQDEuh0mD59Atz64b7bBwtkvmBJW7CCpBYLVILhH/H0hxs/hOw32SN4SJ9Q1sGyyfm4PW3zbsdn55zeyhcZwJXDHdgbIfZbiZW1KPe8gku2LxtTILtBgQvZ+I+yhnDS5uuMBqQHM7xRx+kbKF8+oVJLBDxO5akDhSfLJyOZY+DQLoH8hO7eUsWhrN+IhyaWlN6zp+Bwu9UlzSth5zYGE7qW7hvkXezv0ppgj2WNQ1WCxZaYtCnYfGz+AxY8sBoGWi8lOI89fKGw3Ofjb0lJAETweSWPw0rhfPD5+beTdJSICidD8CyJrCgLYudiKUn9q7zA1gwGTEZMQaKjwGABYOq+KDa9X8tUX7LknbCsQ6wTCg2BvzuBzz6YJo+2BlYcJj2NB2MiQSdpx4DOz1MG9d/YMBPPeBR3jRjbqfXf+DCsmk6GZMJOk85Bsha2emFZbQGowoQ3bAswuCfcvCjrPLjjeYwzeVtoEJM2Po8ltNu7iAdFIAC61UAYFlv36JlUGBnCgAsO5MeBUOB9SoAsKy3b9EyKLAzBQCWnUmPgqHAehUAWNbbt2gZFNiZAgDLzqRHwVBgvQoALOvtW7QMCuxMAYBlZ9KjYCiwXgUAlvX2LVoGBXamwP8HWZz9FQIi0O8AAAAASUVORK5CYII=;" vertex="1" parent="1">
          <mxGeometry x="90" y="70" width="278" height="648" as="geometry" />
        </mxCell>
        <mxCell id="3bySADuBjw2l3h-CoC6T-2" value="" style="endArrow=classic;startArrow=none;html=1;rounded=0;startFill=0;" edge="1" parent="1">
          <mxGeometry width="50" height="50" relative="1" as="geometry">
            <mxPoint x="230" y="640" as="sourcePoint" />
            <mxPoint x="550" y="670" as="targetPoint" />
          </mxGeometry>
        </mxCell>
        <mxCell id="3bySADuBjw2l3h-CoC6T-3" value="" style="endArrow=classic;startArrow=none;html=1;rounded=0;startFill=0;" edge="1" parent="1">
          <mxGeometry width="50" height="50" relative="1" as="geometry">
            <mxPoint x="240" y="670" as="sourcePoint" />
            <mxPoint x="556" y="670" as="targetPoint" />
          </mxGeometry>
        </mxCell>
        <mxCell id="3bySADuBjw2l3h-CoC6T-4" value="" style="endArrow=classic;startArrow=none;html=1;rounded=0;startFill=0;" edge="1" parent="1">
          <mxGeometry width="50" height="50" relative="1" as="geometry">
            <mxPoint x="240" y="700" as="sourcePoint" />
            <mxPoint x="550" y="670" as="targetPoint" />
          </mxGeometry>
        </mxCell>
        <mxCell id="3bySADuBjw2l3h-CoC6T-5" value="" style="endArrow=classic;startArrow=none;html=1;rounded=0;startFill=0;" edge="1" parent="1">
          <mxGeometry width="50" height="50" relative="1" as="geometry">
            <mxPoint x="230" y="490" as="sourcePoint" />
            <mxPoint x="550" y="430" as="targetPoint" />
          </mxGeometry>
        </mxCell>
        <mxCell id="3bySADuBjw2l3h-CoC6T-6" value="" style="endArrow=classic;startArrow=none;html=1;rounded=0;startFill=0;" edge="1" parent="1">
          <mxGeometry width="50" height="50" relative="1" as="geometry">
            <mxPoint x="240" y="460" as="sourcePoint" />
            <mxPoint x="550" y="430" as="targetPoint" />
          </mxGeometry>
        </mxCell>
        <mxCell id="3bySADuBjw2l3h-CoC6T-7" value="" style="endArrow=classic;startArrow=none;html=1;rounded=0;startFill=0;" edge="1" parent="1">
          <mxGeometry width="50" height="50" relative="1" as="geometry">
            <mxPoint x="240" y="430" as="sourcePoint" />
            <mxPoint x="556" y="430" as="targetPoint" />
          </mxGeometry>
        </mxCell>
        <mxCell id="3bySADuBjw2l3h-CoC6T-8" value="" style="endArrow=classic;startArrow=none;html=1;rounded=0;startFill=0;" edge="1" parent="1">
          <mxGeometry width="50" height="50" relative="1" as="geometry">
            <mxPoint x="220" y="400" as="sourcePoint" />
            <mxPoint x="550" y="430" as="targetPoint" />
          </mxGeometry>
        </mxCell>
        <mxCell id="3bySADuBjw2l3h-CoC6T-9" value="" style="endArrow=classic;startArrow=none;html=1;rounded=0;startFill=0;" edge="1" parent="1">
          <mxGeometry width="50" height="50" relative="1" as="geometry">
            <mxPoint x="230" y="320" as="sourcePoint" />
            <mxPoint x="550" y="350" as="targetPoint" />
          </mxGeometry>
        </mxCell>
        <mxCell id="3bySADuBjw2l3h-CoC6T-10" value="" style="endArrow=classic;startArrow=none;html=1;rounded=0;startFill=0;" edge="1" parent="1">
          <mxGeometry width="50" height="50" relative="1" as="geometry">
            <mxPoint x="240" y="350" as="sourcePoint" />
            <mxPoint x="556" y="350" as="targetPoint" />
          </mxGeometry>
        </mxCell>
        <mxCell id="3bySADuBjw2l3h-CoC6T-11" value="" style="endArrow=classic;startArrow=none;html=1;rounded=0;startFill=0;" edge="1" parent="1">
          <mxGeometry width="50" height="50" relative="1" as="geometry">
            <mxPoint x="240" y="200" as="sourcePoint" />
            <mxPoint x="550" y="350" as="targetPoint" />
          </mxGeometry>
        </mxCell>
        <mxCell id="3bySADuBjw2l3h-CoC6T-12" value="" style="endArrow=classic;startArrow=none;html=1;rounded=0;startFill=0;" edge="1" parent="1">
          <mxGeometry width="50" height="50" relative="1" as="geometry">
            <mxPoint x="230" y="550" as="sourcePoint" />
            <mxPoint x="540" y="580" as="targetPoint" />
          </mxGeometry>
        </mxCell>
        <mxCell id="3bySADuBjw2l3h-CoC6T-13" value="" style="endArrow=classic;startArrow=none;html=1;rounded=0;startFill=0;" edge="1" parent="1">
          <mxGeometry width="50" height="50" relative="1" as="geometry">
            <mxPoint x="230" y="580" as="sourcePoint" />
            <mxPoint x="546" y="580" as="targetPoint" />
          </mxGeometry>
        </mxCell>
        <mxCell id="3bySADuBjw2l3h-CoC6T-14" value="" style="endArrow=classic;startArrow=none;html=1;rounded=0;startFill=0;" edge="1" parent="1">
          <mxGeometry width="50" height="50" relative="1" as="geometry">
            <mxPoint x="240" y="610" as="sourcePoint" />
            <mxPoint x="540" y="580" as="targetPoint" />
          </mxGeometry>
        </mxCell>
        <mxCell id="3bySADuBjw2l3h-CoC6T-15" value="" style="endArrow=classic;startArrow=none;html=1;rounded=0;startFill=0;" edge="1" parent="1">
          <mxGeometry width="50" height="50" relative="1" as="geometry">
            <mxPoint x="240" y="230" as="sourcePoint" />
            <mxPoint x="556" y="230" as="targetPoint" />
          </mxGeometry>
        </mxCell>
        <mxCell id="3bySADuBjw2l3h-CoC6T-16" value="" style="endArrow=classic;startArrow=none;html=1;rounded=0;startFill=0;" edge="1" parent="1">
          <mxGeometry width="50" height="50" relative="1" as="geometry">
            <mxPoint x="240" y="260" as="sourcePoint" />
            <mxPoint x="550" y="230" as="targetPoint" />
          </mxGeometry>
        </mxCell>
        <mxCell id="3bySADuBjw2l3h-CoC6T-17" value="" style="endArrow=classic;startArrow=none;html=1;rounded=0;startFill=0;" edge="1" parent="1">
          <mxGeometry width="50" height="50" relative="1" as="geometry">
            <mxPoint x="240" y="290" as="sourcePoint" />
            <mxPoint x="550" y="230" as="targetPoint" />
          </mxGeometry>
        </mxCell>
        <mxCell id="3bySADuBjw2l3h-CoC6T-19" value="用户服务" style="rounded=0;whiteSpace=wrap;html=1;" vertex="1" parent="1">
          <mxGeometry x="560" y="200" width="120" height="60" as="geometry" />
        </mxCell>
        <mxCell id="3bySADuBjw2l3h-CoC6T-21" value="稿件服务" style="rounded=0;whiteSpace=wrap;html=1;" vertex="1" parent="1">
          <mxGeometry x="560" y="320" width="120" height="60" as="geometry" />
        </mxCell>
        <mxCell id="3bySADuBjw2l3h-CoC6T-22" value="评论、点赞服务" style="rounded=0;whiteSpace=wrap;html=1;" vertex="1" parent="1">
          <mxGeometry x="560" y="410" width="120" height="60" as="geometry" />
        </mxCell>
        <mxCell id="3bySADuBjw2l3h-CoC6T-23" value="关注服务" style="rounded=0;whiteSpace=wrap;html=1;" vertex="1" parent="1">
          <mxGeometry x="550" y="550" width="120" height="60" as="geometry" />
        </mxCell>
        <mxCell id="3bySADuBjw2l3h-CoC6T-24" value="聊天服务" style="rounded=0;whiteSpace=wrap;html=1;" vertex="1" parent="1">
          <mxGeometry x="560" y="650" width="120" height="60" as="geometry" />
        </mxCell>
        <mxCell id="3bySADuBjw2l3h-CoC6T-26" value="&lt;font style=&quot;font-size: 20px;&quot;&gt;如果大家有时间&lt;/font&gt;" style="text;html=1;strokeColor=none;fillColor=none;align=center;verticalAlign=middle;whiteSpace=wrap;rounded=0;" vertex="1" parent="1">
          <mxGeometry x="290" y="840" width="420" height="30" as="geometry" />
        </mxCell>
        <mxCell id="3bySADuBjw2l3h-CoC6T-27" value="&lt;font style=&quot;font-size: 16px;&quot;&gt;网关&lt;/font&gt;" style="rounded=0;whiteSpace=wrap;html=1;" vertex="1" parent="1">
          <mxGeometry x="460" y="910" width="120" height="60" as="geometry" />
        </mxCell>
        <mxCell id="3bySADuBjw2l3h-CoC6T-29" value="&lt;font style=&quot;font-size: 16px;&quot;&gt;注册中心&lt;/font&gt;" style="rounded=0;whiteSpace=wrap;html=1;" vertex="1" parent="1">
          <mxGeometry x="790" y="930" width="120" height="60" as="geometry" />
        </mxCell>
        <mxCell id="3bySADuBjw2l3h-CoC6T-30" value="用户服务" style="rounded=0;whiteSpace=wrap;html=1;" vertex="1" parent="1">
          <mxGeometry x="140" y="1150" width="120" height="60" as="geometry" />
        </mxCell>
        <mxCell id="3bySADuBjw2l3h-CoC6T-31" value="稿件服务" style="rounded=0;whiteSpace=wrap;html=1;" vertex="1" parent="1">
          <mxGeometry x="310" y="1150" width="120" height="60" as="geometry" />
        </mxCell>
        <mxCell id="3bySADuBjw2l3h-CoC6T-32" value="评论、点赞服务" style="rounded=0;whiteSpace=wrap;html=1;" vertex="1" parent="1">
          <mxGeometry x="470" y="1150" width="120" height="60" as="geometry" />
        </mxCell>
        <mxCell id="3bySADuBjw2l3h-CoC6T-33" value="关注服务" style="rounded=0;whiteSpace=wrap;html=1;" vertex="1" parent="1">
          <mxGeometry x="650" y="1150" width="120" height="60" as="geometry" />
        </mxCell>
        <mxCell id="3bySADuBjw2l3h-CoC6T-34" value="聊天服务" style="rounded=0;whiteSpace=wrap;html=1;" vertex="1" parent="1">
          <mxGeometry x="840" y="1150" width="120" height="60" as="geometry" />
        </mxCell>
        <mxCell id="3bySADuBjw2l3h-CoC6T-36" value="" style="endArrow=none;dashed=1;html=1;dashPattern=1 3;strokeWidth=2;rounded=1;entryX=0.5;entryY=1;entryDx=0;entryDy=0;" edge="1" parent="1" target="3bySADuBjw2l3h-CoC6T-29">
          <mxGeometry width="50" height="50" relative="1" as="geometry">
            <mxPoint x="200" y="1150" as="sourcePoint" />
            <mxPoint x="250" y="1100" as="targetPoint" />
          </mxGeometry>
        </mxCell>
        <mxCell id="3bySADuBjw2l3h-CoC6T-37" value="" style="endArrow=none;dashed=1;html=1;dashPattern=1 3;strokeWidth=2;rounded=1;entryX=0.5;entryY=1;entryDx=0;entryDy=0;exitX=0.5;exitY=0;exitDx=0;exitDy=0;" edge="1" parent="1" source="3bySADuBjw2l3h-CoC6T-31" target="3bySADuBjw2l3h-CoC6T-29">
          <mxGeometry width="50" height="50" relative="1" as="geometry">
            <mxPoint x="210" y="1160" as="sourcePoint" />
            <mxPoint x="860" y="1000" as="targetPoint" />
          </mxGeometry>
        </mxCell>
        <mxCell id="3bySADuBjw2l3h-CoC6T-38" value="" style="endArrow=none;dashed=1;html=1;dashPattern=1 3;strokeWidth=2;rounded=1;exitX=0.5;exitY=0;exitDx=0;exitDy=0;" edge="1" parent="1" source="3bySADuBjw2l3h-CoC6T-32">
          <mxGeometry width="50" height="50" relative="1" as="geometry">
            <mxPoint x="220" y="1170" as="sourcePoint" />
            <mxPoint x="850" y="990" as="targetPoint" />
          </mxGeometry>
        </mxCell>
        <mxCell id="3bySADuBjw2l3h-CoC6T-39" value="" style="endArrow=none;dashed=1;html=1;dashPattern=1 3;strokeWidth=2;rounded=1;exitX=0.5;exitY=0;exitDx=0;exitDy=0;" edge="1" parent="1" source="3bySADuBjw2l3h-CoC6T-33">
          <mxGeometry width="50" height="50" relative="1" as="geometry">
            <mxPoint x="230" y="1180" as="sourcePoint" />
            <mxPoint x="840" y="990" as="targetPoint" />
          </mxGeometry>
        </mxCell>
        <mxCell id="3bySADuBjw2l3h-CoC6T-40" value="" style="endArrow=none;dashed=1;html=1;dashPattern=1 3;strokeWidth=2;rounded=1;exitX=0.5;exitY=0;exitDx=0;exitDy=0;" edge="1" parent="1" source="3bySADuBjw2l3h-CoC6T-34">
          <mxGeometry width="50" height="50" relative="1" as="geometry">
            <mxPoint x="240" y="1190" as="sourcePoint" />
            <mxPoint x="850" y="990" as="targetPoint" />
          </mxGeometry>
        </mxCell>
        <mxCell id="3bySADuBjw2l3h-CoC6T-43" value="" style="endArrow=none;html=1;strokeWidth=2;rounded=1;exitX=0.5;exitY=1;exitDx=0;exitDy=0;entryX=0.5;entryY=0;entryDx=0;entryDy=0;" edge="1" parent="1" source="3bySADuBjw2l3h-CoC6T-27" target="3bySADuBjw2l3h-CoC6T-34">
          <mxGeometry width="50" height="50" relative="1" as="geometry">
            <mxPoint x="720" y="1160" as="sourcePoint" />
            <mxPoint x="850" y="1000" as="targetPoint" />
          </mxGeometry>
        </mxCell>
        <mxCell id="3bySADuBjw2l3h-CoC6T-46" value="" style="endArrow=none;html=1;strokeWidth=2;rounded=1;exitX=0.5;exitY=1;exitDx=0;exitDy=0;entryX=0.5;entryY=0;entryDx=0;entryDy=0;" edge="1" parent="1" source="3bySADuBjw2l3h-CoC6T-27" target="3bySADuBjw2l3h-CoC6T-33">
          <mxGeometry width="50" height="50" relative="1" as="geometry">
            <mxPoint x="530" y="980" as="sourcePoint" />
            <mxPoint x="910" y="1160" as="targetPoint" />
          </mxGeometry>
        </mxCell>
        <mxCell id="3bySADuBjw2l3h-CoC6T-47" value="" style="endArrow=none;html=1;strokeWidth=2;rounded=1;exitX=0.5;exitY=1;exitDx=0;exitDy=0;" edge="1" parent="1" source="3bySADuBjw2l3h-CoC6T-27" target="3bySADuBjw2l3h-CoC6T-32">
          <mxGeometry width="50" height="50" relative="1" as="geometry">
            <mxPoint x="530" y="980" as="sourcePoint" />
            <mxPoint x="720" y="1160" as="targetPoint" />
          </mxGeometry>
        </mxCell>
        <mxCell id="3bySADuBjw2l3h-CoC6T-48" value="" style="endArrow=none;html=1;strokeWidth=2;rounded=1;exitX=0.5;exitY=1;exitDx=0;exitDy=0;entryX=0.5;entryY=0;entryDx=0;entryDy=0;" edge="1" parent="1" source="3bySADuBjw2l3h-CoC6T-27" target="3bySADuBjw2l3h-CoC6T-31">
          <mxGeometry width="50" height="50" relative="1" as="geometry">
            <mxPoint x="540" y="990" as="sourcePoint" />
            <mxPoint x="730" y="1170" as="targetPoint" />
          </mxGeometry>
        </mxCell>
        <mxCell id="3bySADuBjw2l3h-CoC6T-49" value="" style="endArrow=none;html=1;strokeWidth=2;rounded=1;entryX=0.5;entryY=0;entryDx=0;entryDy=0;" edge="1" parent="1" target="3bySADuBjw2l3h-CoC6T-30">
          <mxGeometry width="50" height="50" relative="1" as="geometry">
            <mxPoint x="520" y="970" as="sourcePoint" />
            <mxPoint x="740" y="1180" as="targetPoint" />
          </mxGeometry>
        </mxCell>
      </root>
    </mxGraphModel>
  </diagram>
</mxfile>
